
<svg width="93" height="30" viewBox="0 0 93 30" fill="none" xmlns="http://www.w3.org/2000/svg">
<path d="M42.853 10.4076V20.8152H43.5829H44.3127V10.4076V3.24249e-05H43.5829H42.853V10.4076Z" fill="#fef200"/>
<path d="M6.49131 7.3903C5.24559 7.53027 4.09186 8.00616 3.0621 8.80597C2.85215 8.96793 2.28028 9.51981 2.08632 9.74776L1.98434 9.86773L1.98235 8.79198V7.71822H1.24252H0.502686V18.5257V29.3333H1.24252H1.98235V23.8125V18.2938L2.08632 18.4198C2.26428 18.6337 2.66219 19.0316 2.90213 19.2336C3.9019 20.0734 5.04964 20.5793 6.38133 20.7672C6.74325 20.8192 7.70303 20.8192 8.08094 20.7692C8.83477 20.6672 9.49062 20.4733 10.1345 20.1654C11.2522 19.6275 12.16 18.8417 12.8538 17.8039C14.0376 16.0383 14.2995 13.7408 13.5457 11.7173C13.2558 10.9355 12.7719 10.1517 12.204 9.5378C11.1182 8.36607 9.77055 7.65424 8.18492 7.41629C7.817 7.3603 6.87922 7.34631 6.49131 7.3903ZM7.97497 8.87596C9.5666 9.1119 10.9343 10.0237 11.7601 11.3994C12.108 11.9792 12.338 12.6211 12.4539 13.3489C12.5099 13.6908 12.5039 14.5387 12.4439 14.8866C12.242 16.0583 11.7641 16.9921 10.9503 17.8059C10.5204 18.2378 10.1005 18.5377 9.5506 18.8057C9.02073 19.0656 8.56283 19.2076 7.97097 19.2996C7.74702 19.3336 7.60105 19.3415 7.24114 19.3415C6.88122 19.3415 6.73525 19.3336 6.5113 19.2996C5.91944 19.2076 5.45555 19.0636 4.92967 18.8077C3.51599 18.1158 2.51622 16.8721 2.12431 15.3245C2.01634 14.8966 1.99234 14.6806 1.99434 14.0768C1.99434 13.5489 1.99834 13.4849 2.04833 13.217C2.15231 12.6451 2.30827 12.1792 2.56021 11.6873C3.07409 10.6815 3.9019 9.86973 4.92967 9.36584C5.54353 9.06591 6.14539 8.89995 6.82923 8.83797C7.10117 8.81197 7.67504 8.83197 7.97497 8.87596Z" fill="#fef200"/>
<path d="M20.7379 7.37226C20.5339 7.39026 20.084 7.46024 19.8641 7.51023C19.0123 7.70019 18.2445 8.03211 17.5386 8.512C14.8092 10.3736 13.8295 13.8908 15.2012 16.9021C15.6551 17.9038 16.4109 18.8296 17.3187 19.5035C18.0925 20.0773 19.0203 20.4912 19.9681 20.6832C20.4659 20.7832 20.7059 20.8052 21.3377 20.8052C21.9816 20.8032 22.1756 20.7852 22.7134 20.6732C24.8749 20.2233 26.7105 18.6777 27.5483 16.5981C27.5863 16.5042 27.6163 16.4202 27.6163 16.4122C27.6163 16.4042 27.2604 16.3962 26.8265 16.3962H26.0367L25.9767 16.5142C25.5828 17.298 24.8549 18.0838 24.0831 18.5617C22.7034 19.4135 21.0318 19.5835 19.5062 19.0256C19.2282 18.9236 18.7063 18.6637 18.4584 18.4997C17.3967 17.8059 16.6068 16.7381 16.2609 15.5344C16.1949 15.3044 16.1189 14.9485 16.1189 14.8685V14.8166H22.0876H28.0562V14.3507C28.0562 13.8488 28.0342 13.4749 27.9842 13.1269C27.5503 10.0816 25.0869 7.70619 22.0336 7.38826C21.7636 7.36027 20.9958 7.35027 20.7379 7.37226ZM22.0576 8.87792C24.3091 9.20984 26.0647 10.8935 26.4966 13.1309C26.5186 13.2449 26.5366 13.3429 26.5366 13.3489C26.5366 13.3529 24.1931 13.3569 21.3277 13.3569H16.1189V13.3049C16.1189 13.2029 16.2209 12.753 16.3029 12.5011C16.5648 11.6833 16.9947 10.9794 17.6086 10.3676C18.0345 9.93967 18.4584 9.63774 18.9883 9.3778C19.6161 9.06987 20.2 8.90391 20.8878 8.83993C21.1738 8.81193 21.7417 8.83193 22.0576 8.87792Z" fill="#fef200"/>
<path d="M34.7348 7.37831C34.2589 7.4283 33.6831 7.54828 33.2652 7.68824C30.9377 8.46407 29.2121 10.4356 28.7582 12.8371C28.6102 13.6229 28.6102 14.5567 28.7582 15.3365C28.9661 16.4222 29.438 17.446 30.1259 18.3058C30.3358 18.5677 30.7957 19.0376 31.0417 19.2416C31.9954 20.0334 33.0992 20.5393 34.2869 20.7332C35.0627 20.8592 35.9765 20.8392 36.7644 20.6753C38.8659 20.2414 40.6834 18.7457 41.5433 16.7422C41.6152 16.5742 41.6732 16.4282 41.6732 16.4162C41.6732 16.4022 41.3993 16.3962 40.8854 16.3962H40.0996L39.9776 16.6142C39.5597 17.37 38.9778 18.0019 38.254 18.4858C37.9721 18.6757 37.4262 18.9457 37.1043 19.0556C35.9405 19.4555 34.7048 19.4435 33.5631 19.0256C33.0952 18.8537 32.4833 18.5118 32.1054 18.2058C31.1916 17.472 30.5418 16.4582 30.2658 15.3345C30.2279 15.1825 30.1919 15.0026 30.1839 14.9366L30.1699 14.8166H36.1445H42.1191L42.1071 14.1608C42.0951 13.4949 42.0831 13.3509 42.0111 12.927C41.6912 11.0495 40.5455 9.35786 38.9099 8.35209C38.104 7.8562 37.2862 7.56227 36.3145 7.41631C36.0085 7.37032 35.0427 7.34632 34.7348 7.37831ZM36.1265 8.87597C37.9961 9.15591 39.5617 10.3916 40.2635 12.1372C40.4015 12.4811 40.5495 13.021 40.5775 13.287L40.5835 13.3469L35.3767 13.3529L30.1699 13.3569L30.1839 13.237C30.2039 13.067 30.3198 12.6051 30.4058 12.3612C30.6698 11.6033 31.0897 10.9395 31.6635 10.3676C32.0994 9.93373 32.5133 9.6378 33.0652 9.36586C33.6831 9.05993 34.2449 8.90796 35.0248 8.82998C35.2147 8.80999 35.8766 8.83798 36.1265 8.87597Z" fill="#fef200"/>
<path d="M85.0333 7.5323C84.9893 7.5363 84.8233 7.55629 84.6634 7.58029C82.6079 7.86822 80.8243 9.10394 79.7965 10.9495C79.3726 11.7133 79.0907 12.6211 78.9947 13.5229C78.9367 14.0848 78.9627 14.8986 79.0547 15.4425C79.2886 16.7962 79.9625 18.0939 80.9342 19.0656C82.048 20.1774 83.4816 20.8412 85.0573 20.9752C85.4172 21.0072 86.145 20.9912 86.483 20.9452C88.4785 20.6773 90.2061 19.5655 91.2659 17.8659C92.2956 16.2203 92.5636 14.2008 92.0097 12.2912C91.6618 11.0935 90.9259 9.94574 89.9842 9.13393C88.9464 8.23614 87.6907 7.69226 86.335 7.5483C86.0711 7.5203 85.2772 7.5103 85.0333 7.5323ZM86.0191 10.2997C86.6929 10.3716 87.3628 10.6336 87.9026 11.0355C88.0826 11.1675 88.4645 11.5354 88.6125 11.7173C89.0644 12.2712 89.3763 13.005 89.4703 13.7329C89.6922 15.4465 88.8224 17.0981 87.3128 17.8359C85.8671 18.5438 84.1515 18.2878 82.9898 17.1901C82.3519 16.5882 81.948 15.8184 81.79 14.9066C81.7401 14.6187 81.742 13.8848 81.792 13.6069C81.872 13.163 81.988 12.8071 82.1759 12.4312C82.6998 11.3754 83.6516 10.6236 84.7854 10.3696C85.1833 10.2817 85.6232 10.2557 86.0191 10.2997Z" fill="#fef200"/>
<path d="M55.8499 14.2368V20.8152H57.2495H58.6492V18.5478V16.2803L60.1849 16.2703C61.7805 16.2603 61.8445 16.2563 62.3284 16.1643C64.114 15.8244 65.2997 14.5047 65.5516 12.5771C65.5636 12.4732 65.5756 12.2032 65.5756 11.9773C65.5756 11.3894 65.5076 10.9395 65.3397 10.4316C64.8838 9.04195 63.826 8.08817 62.4023 7.78024C61.8825 7.66827 62.0044 7.67027 58.8052 7.66427L55.8499 7.65627V14.2368ZM61.3966 10.1377C61.4726 10.1497 61.5965 10.1797 61.6725 10.2057C62.4863 10.4896 62.9682 11.5854 62.6983 12.5292C62.5123 13.175 62.0724 13.6329 61.5006 13.7769C61.3506 13.8149 61.2746 13.8169 59.9949 13.8169H58.6492V11.9813C58.6492 10.9715 58.6552 10.1377 58.6632 10.1317C58.6852 10.1097 61.2426 10.1157 61.3966 10.1377Z" fill="#fef200"/>
<path d="M67.5674 14.2368V20.8152H68.9671H70.3667V18.5458V16.2763L70.6887 16.2803L71.0106 16.2863L72.4743 18.5458L73.9359 20.8052L75.6115 20.8112C76.5313 20.8132 77.2851 20.8092 77.2851 20.8012C77.2851 20.7913 76.5553 19.7455 75.6655 18.4758C74.7757 17.2061 74.0539 16.1623 74.0619 16.1543C74.0699 16.1483 74.1299 16.1303 74.1959 16.1163C74.7737 15.9944 75.5016 15.6204 75.9635 15.2085C76.8932 14.3827 77.3971 13.051 77.3051 11.6673C77.1752 9.7238 76.0194 8.26613 74.2538 7.82023C73.628 7.66227 73.548 7.65827 70.3447 7.65827H67.5674V14.2368ZM73.0141 10.1377C73.57 10.2197 74.0279 10.6196 74.2558 11.2255C74.4638 11.7793 74.4358 12.3592 74.1759 12.8891C74.0019 13.245 73.744 13.5089 73.416 13.6669C73.1021 13.8189 73.1161 13.8169 71.6584 13.8169H70.3667V11.9813C70.3667 10.9715 70.3727 10.1377 70.3807 10.1317C70.4007 10.1097 72.8602 10.1157 73.0141 10.1377Z" fill="#fef200"/>
<path d="M47.9157 10.9035L44.7324 14.0868L48.0976 17.452L51.4609 20.8152H52.5006H53.5404L50.1752 17.45L46.8119 14.0868L49.9952 10.9015L53.1805 7.71826H52.1407H51.101L47.9157 10.9035Z" fill="#fef200"/>
</svg>
